<svg viewBox="0 0 200 200" xmlns="http://www.w3.org/2000/svg">
  <defs>
    <linearGradient id="bakeryGradient" x1="0%" y1="0%" x2="100%" y2="100%">
      <stop offset="0%" style="stop-color:#D7CCC8;stop-opacity:1" />
      <stop offset="100%" style="stop-color:#8D6E63;stop-opacity:1" />
    </linearGradient>
  </defs>
  <rect width="200" height="200" fill="url(#bakeryGradient)"/>
  <!-- Bread loaf -->
  <path d="M 60 75 Q 60 60 75 60 Q 90 60 90 75 L 85 115 Q 85 120 80 120 L 65 120 Q 60 120 60 115 Z" fill="#8D6E63" stroke="#6D4C41" stroke-width="1.5"/>
  <path d="M 65 75 Q 70 65 75 65 Q 80 65 85 75" stroke="#6D4C41" stroke-width="1" fill="none"/>
  <!-- Croissant -->
  <path d="M 110 90 Q 100 75 120 70 Q 135 85 130 105" stroke="#A1887F" stroke-width="8" fill="none" stroke-linecap="round"/>
  <!-- Donut -->
  <circle cx="130" cy="130" r="18" fill="#FF6F00"/>
  <circle cx="130" cy="130" r="10" fill="url(#bakeryGradient)"/>
  <circle cx="125" cy="125" r="2" fill="#FFD54F"/>
  <circle cx="135" cy="128" r="2" fill="#FFD54F"/>
  <text x="100" y="175" font-size="16" fill="white" text-anchor="middle" font-weight="bold">Bakery Items</text>
</svg>